<mxfile host="app.diagrams.net" agent="Mozilla/5.0 (Windows NT 10.0; Win64; x64) AppleWebKit/537.36 (KHTML, like Gecko) Chrome/129.0.0.0 Safari/537.36 Edg/129.0.0.0" version="24.7.16">
  <diagram name="Страница — 1" id="u-QyD93VpS2AOefUdrxG">
    <mxGraphModel dx="870" dy="479" grid="1" gridSize="10" guides="1" tooltips="1" connect="1" arrows="1" fold="1" page="1" pageScale="1" pageWidth="827" pageHeight="1169" math="0" shadow="0">
      <root>
        <mxCell id="0" />
        <mxCell id="1" parent="0" />
        <mxCell id="7IRPc-NNl4DpkCuS2R-y-5" style="edgeStyle=orthogonalEdgeStyle;rounded=0;orthogonalLoop=1;jettySize=auto;html=1;exitX=0.5;exitY=1;exitDx=0;exitDy=0;" edge="1" parent="1" source="7IRPc-NNl4DpkCuS2R-y-1" target="7IRPc-NNl4DpkCuS2R-y-4">
          <mxGeometry relative="1" as="geometry" />
        </mxCell>
        <mxCell id="7IRPc-NNl4DpkCuS2R-y-1" value="" style="ellipse;whiteSpace=wrap;html=1;aspect=fixed;fillStyle=hatch;fillColor=#000000;gradientColor=default;" vertex="1" parent="1">
          <mxGeometry x="390" y="80" width="20" height="20" as="geometry" />
        </mxCell>
        <mxCell id="7IRPc-NNl4DpkCuS2R-y-26" style="edgeStyle=orthogonalEdgeStyle;rounded=0;orthogonalLoop=1;jettySize=auto;html=1;exitX=0;exitY=0.5;exitDx=0;exitDy=0;" edge="1" parent="1" source="7IRPc-NNl4DpkCuS2R-y-4" target="7IRPc-NNl4DpkCuS2R-y-25">
          <mxGeometry relative="1" as="geometry" />
        </mxCell>
        <mxCell id="7IRPc-NNl4DpkCuS2R-y-27" style="edgeStyle=orthogonalEdgeStyle;rounded=0;orthogonalLoop=1;jettySize=auto;html=1;exitX=0;exitY=0.5;exitDx=0;exitDy=0;" edge="1" parent="1" source="7IRPc-NNl4DpkCuS2R-y-4" target="7IRPc-NNl4DpkCuS2R-y-23">
          <mxGeometry relative="1" as="geometry" />
        </mxCell>
        <mxCell id="7IRPc-NNl4DpkCuS2R-y-28" style="edgeStyle=orthogonalEdgeStyle;rounded=0;orthogonalLoop=1;jettySize=auto;html=1;exitX=0;exitY=0.5;exitDx=0;exitDy=0;" edge="1" parent="1" source="7IRPc-NNl4DpkCuS2R-y-4" target="7IRPc-NNl4DpkCuS2R-y-24">
          <mxGeometry relative="1" as="geometry" />
        </mxCell>
        <mxCell id="7IRPc-NNl4DpkCuS2R-y-29" value="Да" style="edgeLabel;html=1;align=center;verticalAlign=middle;resizable=0;points=[];" vertex="1" connectable="0" parent="7IRPc-NNl4DpkCuS2R-y-28">
          <mxGeometry x="-0.5268" y="-1" relative="1" as="geometry">
            <mxPoint as="offset" />
          </mxGeometry>
        </mxCell>
        <mxCell id="7IRPc-NNl4DpkCuS2R-y-44" style="edgeStyle=orthogonalEdgeStyle;rounded=0;orthogonalLoop=1;jettySize=auto;html=1;exitX=1;exitY=0.5;exitDx=0;exitDy=0;" edge="1" parent="1" source="7IRPc-NNl4DpkCuS2R-y-4" target="7IRPc-NNl4DpkCuS2R-y-13">
          <mxGeometry relative="1" as="geometry" />
        </mxCell>
        <mxCell id="7IRPc-NNl4DpkCuS2R-y-45" style="edgeStyle=orthogonalEdgeStyle;rounded=0;orthogonalLoop=1;jettySize=auto;html=1;exitX=1;exitY=0.5;exitDx=0;exitDy=0;" edge="1" parent="1" source="7IRPc-NNl4DpkCuS2R-y-4" target="7IRPc-NNl4DpkCuS2R-y-14">
          <mxGeometry relative="1" as="geometry" />
        </mxCell>
        <mxCell id="7IRPc-NNl4DpkCuS2R-y-46" style="edgeStyle=orthogonalEdgeStyle;rounded=0;orthogonalLoop=1;jettySize=auto;html=1;exitX=1;exitY=0.5;exitDx=0;exitDy=0;" edge="1" parent="1" source="7IRPc-NNl4DpkCuS2R-y-4" target="7IRPc-NNl4DpkCuS2R-y-16">
          <mxGeometry relative="1" as="geometry" />
        </mxCell>
        <mxCell id="7IRPc-NNl4DpkCuS2R-y-47" style="edgeStyle=orthogonalEdgeStyle;rounded=0;orthogonalLoop=1;jettySize=auto;html=1;exitX=1;exitY=0.5;exitDx=0;exitDy=0;" edge="1" parent="1" source="7IRPc-NNl4DpkCuS2R-y-4" target="7IRPc-NNl4DpkCuS2R-y-15">
          <mxGeometry relative="1" as="geometry" />
        </mxCell>
        <mxCell id="7IRPc-NNl4DpkCuS2R-y-48" value="нет" style="edgeLabel;html=1;align=center;verticalAlign=middle;resizable=0;points=[];" vertex="1" connectable="0" parent="7IRPc-NNl4DpkCuS2R-y-47">
          <mxGeometry x="-0.3043" y="-1" relative="1" as="geometry">
            <mxPoint as="offset" />
          </mxGeometry>
        </mxCell>
        <mxCell id="7IRPc-NNl4DpkCuS2R-y-4" value="Пользователь = Ученик?" style="shape=hexagon;perimeter=hexagonPerimeter2;whiteSpace=wrap;html=1;fixedSize=1;" vertex="1" parent="1">
          <mxGeometry x="290" y="120" width="220" height="50" as="geometry" />
        </mxCell>
        <mxCell id="7IRPc-NNl4DpkCuS2R-y-37" style="edgeStyle=orthogonalEdgeStyle;rounded=0;orthogonalLoop=1;jettySize=auto;html=1;exitX=0.5;exitY=1;exitDx=0;exitDy=0;" edge="1" parent="1" source="7IRPc-NNl4DpkCuS2R-y-13">
          <mxGeometry relative="1" as="geometry">
            <mxPoint x="400" y="430" as="targetPoint" />
          </mxGeometry>
        </mxCell>
        <mxCell id="7IRPc-NNl4DpkCuS2R-y-13" value="Ввод оценок" style="ellipse;whiteSpace=wrap;html=1;" vertex="1" parent="1">
          <mxGeometry x="406.5" y="260" width="100" height="60" as="geometry" />
        </mxCell>
        <mxCell id="7IRPc-NNl4DpkCuS2R-y-38" style="edgeStyle=orthogonalEdgeStyle;rounded=0;orthogonalLoop=1;jettySize=auto;html=1;exitX=0.5;exitY=1;exitDx=0;exitDy=0;entryX=0.5;entryY=0;entryDx=0;entryDy=0;" edge="1" parent="1" source="7IRPc-NNl4DpkCuS2R-y-14" target="7IRPc-NNl4DpkCuS2R-y-31">
          <mxGeometry relative="1" as="geometry" />
        </mxCell>
        <mxCell id="7IRPc-NNl4DpkCuS2R-y-14" value="Ввод ДЗ" style="ellipse;whiteSpace=wrap;html=1;" vertex="1" parent="1">
          <mxGeometry x="536.5" y="260" width="100" height="60" as="geometry" />
        </mxCell>
        <mxCell id="7IRPc-NNl4DpkCuS2R-y-41" style="edgeStyle=orthogonalEdgeStyle;rounded=0;orthogonalLoop=1;jettySize=auto;html=1;exitX=0.5;exitY=1;exitDx=0;exitDy=0;" edge="1" parent="1" source="7IRPc-NNl4DpkCuS2R-y-15">
          <mxGeometry relative="1" as="geometry">
            <mxPoint x="400" y="430" as="targetPoint" />
          </mxGeometry>
        </mxCell>
        <mxCell id="7IRPc-NNl4DpkCuS2R-y-15" value="Просмотр списка учеников" style="ellipse;whiteSpace=wrap;html=1;" vertex="1" parent="1">
          <mxGeometry x="793.5" y="260" width="100" height="60" as="geometry" />
        </mxCell>
        <mxCell id="7IRPc-NNl4DpkCuS2R-y-39" style="edgeStyle=orthogonalEdgeStyle;rounded=0;orthogonalLoop=1;jettySize=auto;html=1;exitX=0.5;exitY=1;exitDx=0;exitDy=0;" edge="1" parent="1" source="7IRPc-NNl4DpkCuS2R-y-16">
          <mxGeometry relative="1" as="geometry">
            <mxPoint x="400" y="430" as="targetPoint" />
          </mxGeometry>
        </mxCell>
        <mxCell id="7IRPc-NNl4DpkCuS2R-y-16" value="Редактирование расписания" style="ellipse;whiteSpace=wrap;html=1;" vertex="1" parent="1">
          <mxGeometry x="666.5" y="260" width="100" height="60" as="geometry" />
        </mxCell>
        <mxCell id="7IRPc-NNl4DpkCuS2R-y-35" style="edgeStyle=orthogonalEdgeStyle;rounded=0;orthogonalLoop=1;jettySize=auto;html=1;exitX=0.5;exitY=1;exitDx=0;exitDy=0;entryX=0.5;entryY=0;entryDx=0;entryDy=0;" edge="1" parent="1" source="7IRPc-NNl4DpkCuS2R-y-23" target="7IRPc-NNl4DpkCuS2R-y-31">
          <mxGeometry relative="1" as="geometry" />
        </mxCell>
        <mxCell id="7IRPc-NNl4DpkCuS2R-y-23" value="Просмотр оценок" style="ellipse;whiteSpace=wrap;html=1;" vertex="1" parent="1">
          <mxGeometry x="110" y="260" width="100" height="60" as="geometry" />
        </mxCell>
        <mxCell id="7IRPc-NNl4DpkCuS2R-y-36" style="edgeStyle=orthogonalEdgeStyle;rounded=0;orthogonalLoop=1;jettySize=auto;html=1;exitX=0.5;exitY=1;exitDx=0;exitDy=0;entryX=0.5;entryY=0;entryDx=0;entryDy=0;" edge="1" parent="1" source="7IRPc-NNl4DpkCuS2R-y-24" target="7IRPc-NNl4DpkCuS2R-y-31">
          <mxGeometry relative="1" as="geometry" />
        </mxCell>
        <mxCell id="7IRPc-NNl4DpkCuS2R-y-24" value="Просмотр Д/З" style="ellipse;whiteSpace=wrap;html=1;" vertex="1" parent="1">
          <mxGeometry y="260" width="100" height="60" as="geometry" />
        </mxCell>
        <mxCell id="7IRPc-NNl4DpkCuS2R-y-34" style="edgeStyle=orthogonalEdgeStyle;rounded=0;orthogonalLoop=1;jettySize=auto;html=1;exitX=0.5;exitY=1;exitDx=0;exitDy=0;entryX=0.5;entryY=0;entryDx=0;entryDy=0;" edge="1" parent="1" source="7IRPc-NNl4DpkCuS2R-y-25" target="7IRPc-NNl4DpkCuS2R-y-31">
          <mxGeometry relative="1" as="geometry" />
        </mxCell>
        <mxCell id="7IRPc-NNl4DpkCuS2R-y-25" value="Просмотр оценок" style="ellipse;whiteSpace=wrap;html=1;" vertex="1" parent="1">
          <mxGeometry x="220" y="260" width="100" height="60" as="geometry" />
        </mxCell>
        <mxCell id="7IRPc-NNl4DpkCuS2R-y-31" value="" style="ellipse;whiteSpace=wrap;html=1;aspect=fixed;fillStyle=hatch;" vertex="1" parent="1">
          <mxGeometry x="390" y="430" width="20" height="20" as="geometry" />
        </mxCell>
      </root>
    </mxGraphModel>
  </diagram>
</mxfile>
